<?xml version="1.0" standalone="no"?>
<!DOCTYPE svg PUBLIC "-//W3C//DTD SVG 20010904//EN"
 "http://www.w3.org/TR/2001/REC-SVG-20010904/DTD/svg10.dtd">
<svg version="1.0" xmlns="http://www.w3.org/2000/svg"
 width="612.000000pt" height="408.000000pt" viewBox="0 0 612.000000 408.000000"
 preserveAspectRatio="xMidYMid meet">

<g transform="translate(0.000000,408.000000) scale(0.100000,-0.100000)"
fill="#000000" stroke="none">
<path d="M1070 1495 l0 -225 25 0 25 0 0 225 0 225 -25 0 -25 0 0 -225z"/>
<path d="M1220 1590 c0 -33 3 -40 20 -40 24 0 28 43 6 66 -22 21 -26 17 -26
-26z"/>
<path d="M928 1405 l-3 -175 23 0 c22 0 22 0 22 175 0 167 -1 175 -20 175 -18
0 -19 -9 -22 -175z"/>
<path d="M353 1273 c-10 -4 -13 -49 -13 -184 l0 -179 25 0 25 0 0 179 c0 181
-3 196 -37 184z"/>
<path d="M643 1253 c-9 -3 -13 -26 -13 -68 0 -42 4 -65 13 -68 28 -10 37 6 37
68 0 62 -9 78 -37 68z"/>
<path d="M780 1125 l0 -125 25 0 25 0 0 125 0 125 -25 0 -25 0 0 -125z"/>
<path d="M63 1133 c-7 -3 -13 -15 -13 -28 0 -24 16 -35 38 -28 6 3 12 15 12
28 0 24 -16 35 -37 28z"/>
<path d="M207 1104 c-4 -4 -7 -36 -7 -71 0 -57 2 -63 20 -63 19 0 21 5 18 67
-3 61 -14 84 -31 67z"/>
<path d="M490 950 c0 -133 1 -140 20 -140 19 0 20 7 20 140 0 133 -1 140 -20
140 -19 0 -20 -7 -20 -140z"/>
</g>
</svg>
